HIERARCHY
ROOT Hips
{
  OFFSET -338.197 94.0981 -8.25627
  CHANNELS 6 Xposition Yposition Zposition Zrotation Xrotation Yrotation
  JOINT RightUpLeg
  {
    OFFSET -8.9458 -8.66707 0.101652
    CHANNELS 3 Zrotation Xrotation Yrotation
    JOINT RightLeg
    {
      OFFSET 0 -44.4227 1.3727
      CHANNELS 3 Zrotation Xrotation Yrotation
      JOINT RightFoot
      {
        OFFSET 0.253549 -42.0924 -1.46059
        CHANNELS 3 Zrotation Xrotation Yrotation
        JOINT RightToes
        {
          OFFSET 0.04 -4.41509 8.4991
          CHANNELS 3 Zrotation Xrotation Yrotation
          End Site
          {
            OFFSET -0.08 -0.137448 9.77979
          }
        }
      }
    }
  }
  JOINT Spine
  {
    OFFSET 0 11.8905 0
    CHANNELS 3 Zrotation Xrotation Yrotation
    JOINT Spine1
    {
      OFFSET 0 25.6574 0.127663
      CHANNELS 3 Zrotation Xrotation Yrotation
      JOINT HEad
      {
        OFFSET 0 8.73416 0.011341
        CHANNELS 3 Zrotation Xrotation Yrotation
        End Site
        {
          OFFSET -0.29 12.7742 2.51395
        }
      }
      JOINT LeftShoulder1
      {
        OFFSET 8.99 -0.362252 -0.22
        CHANNELS 3 Zrotation Xrotation Yrotation
        JOINT LeftArm
        {
          OFFSET 10.2827 -0.00338 0.322123
          CHANNELS 3 Zrotation Xrotation Yrotation
          JOINT LeftForeArm
          {
            OFFSET 32.7669 0.099144 -1.42434
            CHANNELS 3 Zrotation Xrotation Yrotation
            JOINT LeftHand
            {
              OFFSET 27.5643 0.085362 1.02216
              CHANNELS 3 Zrotation Xrotation Yrotation
              End Site
              {
                OFFSET 16.7443 -0.6 1.50291
              }
            }
          }
        }
      }
      JOINT RightShoulder
      {
        OFFSET -8.99 -0.362252 -0.22
        CHANNELS 3 Zrotation Xrotation Yrotation
        JOINT RightArm
        {
          OFFSET -10.2827 -0.00338 0.322123
          CHANNELS 3 Zrotation Xrotation Yrotation
          JOINT RightForeArm
          {
            OFFSET -32.8971 0.099144 -1.42434
            CHANNELS 3 Zrotation Xrotation Yrotation
            JOINT RightHand
            {
              OFFSET -27.4921 0.085362 1.02216
              CHANNELS 3 Zrotation Xrotation Yrotation
              End Site
              {
                OFFSET -16.6312 -0.6 1.50291
              }
            }
          }
        }
      }
    }
  }
  JOINT LeftUpLeg
  {
    OFFSET 8.9458 -8.66707 0.101652
    CHANNELS 3 Zrotation Xrotation Yrotation
    JOINT LeftLeg
    {
      OFFSET 0 -44.4227 1.3727
      CHANNELS 3 Zrotation Xrotation Yrotation
      JOINT LeftFoot
      {
        OFFSET -0.253549 -42.0924 -1.46059
        CHANNELS 3 Zrotation Xrotation Yrotation
        JOINT LeftToes
        {
          OFFSET -0.04 -4.41509 8.4991
          CHANNELS 3 Zrotation Xrotation Yrotation
          End Site
          {
            OFFSET 0.08 -0.047448 9.77979
          }
        }
      }
    }
  }
}
MOTION
Frames:	10
Frame Time:	0.0166667
-328.684 89.957 -12.8111 -11.2208 13.2056 -127.529 -25.7456 3.35298 19.8239 40.5724 34.2008 -43.535 -32.0223 1.69486 -1.47234 0.0462048 0.000533403 0.662642 8.7861 21.6676 -3.76238 4.56807e-012 -5.55252e-009 1.39626e-012 -5.85471 14.5315 18.8688 -7.95139e-016 -7.95139e-016 6.36111e-015 179.766 -67.1898 -149.216 -89.568 59.9477 -24.5519 18.6812 16.1199 -16.4624 11.1674 8.39498 -0.408971 103.309 -8.15197 70.5256 34.7712 54.8899 83.7425 17.3408 20.4736 2.18693 27.0609 -15.4445 -3.12842 -22.1239 28.9667 54.5253 -13.4313 -3.58173 -1.03391 -1.18447e-009 1.5602e-007 -4.87132e-009 
-330.065 90.6051 -12.1399 -11.1768 12.9871 -127.533 -25.7957 3.02185 19.7589 40.3415 34.188 -43.459 -31.9898 1.68016 -1.46565 0.0462048 0.000533403 0.662642 7.90324 21.805 -3.62213 4.56807e-012 -5.55252e-009 1.39308e-012 -6.73788 14.3956 18.8024 7.95139e-016 7.95139e-016 -0 179.571 -66.8176 -149.167 -90.519 60.3032 -23.9279 18.7787 16.2489 -16.5332 11.7112 8.34475 -0.19592 102.864 -8.5971 70.6275 34.82 54.9165 83.9688 17.2588 20.4783 2.31863 27.3142 -14.5468 -0.676283 -23.4675 28.2115 53.5488 -11.7156 -3.5839 -0.936778 -1.18447e-009 1.5602e-007 -4.87131e-009 
-331.407 91.1969 -11.4899 -11.1785 12.7624 -127.459 -25.8653 2.58827 19.697 40.33 34.2275 -43.5995 -31.9547 1.68031 -1.46065 0.0462048 0.000533403 0.662642 7.01484 21.9422 -3.49475 4.56728e-012 -5.55253e-009 1.3899e-012 -7.46421 14.2343 18.6387 7.95139e-016 7.95139e-016 9.54166e-015 179.571 -66.4371 -148.99 -91.4656 60.6317 -23.3218 18.8891 16.3771 -16.582 12.2708 8.29843 -0.0284414 102.47 -9.02704 70.7211 34.8837 54.9313 84.189 17.1797 20.4627 2.44575 27.4313 -13.6715 1.31157 -24.8354 27.4743 52.903 -10.1409 -3.5774 -0.849631 -1.18446e-009 1.5602e-007 -4.87131e-009 
-332.704 91.7238 -10.8648 -11.22 12.5351 -127.308 -25.9346 2.07209 19.6333 40.5335 34.2946 -43.8553 -31.9116 1.68906 -1.45918 0.0462048 0.000533403 0.662642 6.13579 22.0775 -3.38121 4.56887e-012 -5.55252e-009 1.40262e-012 -8.04274 14.0573 18.3895 7.95139e-016 -7.95139e-016 -1.59028e-014 179.739 -66.0415 -148.713 -92.3997 60.9213 -22.7294 19.004 16.4959 -16.5967 12.8287 8.25841 0.0892998 102.143 -9.43213 70.8093 34.9802 54.9389 84.3759 17.1067 20.4371 2.57009 27.4312 -12.8305 2.86403 -26.1903 26.739 52.5474 -8.70813 -3.56322 -0.7722 -1.18447e-009 1.5602e-007 -4.87131e-009 
-333.95 92.1858 -10.2691 -11.2942 12.3072 -127.091 -25.9859 1.49505 19.5645 40.9141 34.3439 -44.1373 -31.857 1.69958 -1.46187 0.0462048 0.000533403 0.662642 5.2767 22.2096 -3.27895 4.56728e-012 -5.55252e-009 1.39308e-012 -8.48335 13.8718 18.0665 -7.95139e-016 7.95139e-016 9.54166e-015 -179.982 -65.6234 -148.378 -93.3341 61.1605 -22.129 19.1166 16.5869 -16.5693 13.3583 8.22763 0.158587 101.903 -9.80802 70.8975 35.1198 54.9451 84.5103 17.0546 20.4088 2.67618 27.3306 -12.0354 4.01261 -27.499 25.9947 52.4433 -7.41884 -3.54066 -0.703789 -1.18447e-009 1.5602e-007 -4.87132e-009 
-335.138 92.5856 -9.70725 -11.3928 12.0801 -126.818 -26.0068 0.876653 19.4886 41.4302 34.3377 -44.4007 -31.79 1.7057 -1.46891 0.0462048 0.000533403 0.662642 4.44472 22.338 -3.18223 4.56807e-012 -5.55252e-009 1.39626e-012 -8.79751 13.6822 17.6813 -7.95139e-016 0 -3.18055e-015 -179.647 -65.1796 -148.025 -94.285 61.3383 -21.4981 19.2143 16.6494 -16.5164 13.84 8.20824 0.187529 101.759 -10.1574 70.9913 35.303 54.9541 84.5835 17.0173 20.3856 2.76415 27.1458 -11.2968 4.79179 -28.7347 25.2372 52.5559 -6.27562 -3.50982 -0.643946 -1.18447e-009 1.5602e-007 -4.87132e-009 
-336.262 92.9279 -9.18337 -11.5067 11.8546 -126.505 -25.9899 0.235398 19.4052 42.0205 34.2384 -44.6307 -31.7126 1.70239 -1.48126 0.0462048 0.000533403 0.662642 3.64388 22.4626 -3.08309 4.56807e-012 -5.55252e-009 1.40262e-012 -8.99795 13.4899 17.2461 -2.20695e-032 -3.97569e-016 -3.18055e-015 -179.305 -64.7123 -147.684 -95.2684 61.447 -20.8176 19.2929 16.6837 -16.4508 14.2615 8.20188 0.185594 101.711 -10.4814 71.0939 35.5183 54.9708 84.5994 16.996 20.3714 2.82632 26.8922 -10.6231 5.23864 -29.8753 24.4671 52.8545 -5.28065 -3.4708 -0.592177 -1.18447e-009 1.5602e-007 -4.87131e-009 
-337.315 93.2159 -8.69527 -11.62 11.624 -126.185 -25.9963 -0.213318 19.3305 41.9865 34.2213 -44.4699 -31.1502 1.64554 -1.48748 0.0462048 0.000533403 0.662642 2.86577 22.5762 -2.95714 -9.00481e-005 0.000270018 -0.000359988 -9.09606 13.2918 16.7746 -3.97569e-016 -3.97569e-016 -3.18055e-015 -179 -64.2219 -147.391 -96.3068 61.4832 -20.0654 19.3488 16.705 -16.387 14.6162 8.20783 0.161736 101.756 -10.7743 71.2064 35.7446 54.9967 84.5683 16.9828 20.3646 2.86505 26.5702 -10.0209 5.40529 -30.8813 23.6741 53.3022 -4.43149 -3.42143 -0.54163 -1.18446e-009 1.5602e-007 -4.87131e-009 
-338.197 94.0981 -8.25627 -11.8074 11.4218 -125.869 -25.5456 -0.342034 19.1142 40.5632 34.6 -43.0408 -29.8411 1.50728 -1.46472 0.0462048 0.000533403 0.662642 2.36927 22.1594 -3.03408 0.0212583 -0.0402896 -0.0123319 -9.04291 13.6852 16.2151 3.97569e-016 0 -0 -177.612 -63.9911 -146.961 -97.4306 61.8352 -20.4891 18.3867 19.8565 -20.4824 17.6102 5.86095 0.731932 98.8604 -13.8352 69.4685 35.7625 55.2043 85.2924 12.5362 24.2929 3.57624 25.8506 -9.8638 5.72007 -30.9592 23.4436 52.038 -1.91157 -3.42671 -0.397194 -1.18446e-009 1.5602e-007 -4.87131e-009 
-338.746 94.7673 -7.74596 -12.0539 11.2653 -125.573 -24.686 -0.205947 18.7425 37.9417 35.2263 -40.4101 -27.9256 1.27391 -1.41388 0.0462048 0.000533403 0.662642 2.18799 21.2788 -3.32915 0.0239879 -0.0408195 -0.015142 -8.84509 14.5914 15.5687 -7.95139e-016 0 -3.18055e-015 -175.134 -63.9219 -146.227 -98.6914 62.5209 -21.8756 16.8097 24.3081 -25.5035 22.5654 2.11034 1.67855 93.3266 -18.5381 66.4322 35.6052 55.5834 86.628 6.02706 29.5951 4.38135 24.8655 -10.1923 6.16691 -30.3578 23.9075 49.3529 1.40359 -3.39194 -0.152033 -1.18446e-009 1.5602e-007 -4.87131e-009 
